<?xml version="1.0" encoding="UTF-8"?>
<svg xmlns="http://www.w3.org/2000/svg" version="1.1" viewBox="0 0 14.8325195 18.1600342">
  <!-- Generator: Adobe Illustrator 28.6.0, SVG Export Plug-In . SVG Version: 1.2.0 Build 709)  -->
  <g>
    <g id="Layer_1">
      <polygon points="14.8325195 8.5113525 11.0782471 8.5113525 8.1011963 11.3375244 8.1011963 18.1600342 12.2846069 18.1600342 9.984375 10.246521 14.8325195 10.246521 14.8325195 8.5113525" fill="#feec30"/>
      <polygon points="6.7554932 18.1600342 6.7554932 11.3375244 3.7784424 8.5113525 0 8.5113525 0 10.246521 4.7697754 10.246521 4.8378906 10.246521 2.5377197 18.1600342 6.7554932 18.1600342" fill="#feec30"/>
      <path d="M10.3770752,5.90802L7.4162598,0l-2.9608154,5.90802L0,3.5373535v3.6331787h4.3135986l3.1147461,2.9567261,3.1147461-2.9567261h4.2894287v-3.6331787l-4.4554443,2.3706665ZM7.4111328,8.24823l-2.1311646-1.5209351,2.152771-4.5045776,2.1095581,4.5045776-2.1311646,1.5209351Z" fill="#feec30"/>
    </g>
  </g>
</svg>