<?xml version="1.0" encoding="UTF-8"?>
<svg id="Layer_1" xmlns="http://www.w3.org/2000/svg" version="1.1" viewBox="0 0 64 64">
  <!-- Generator: Adobe Illustrator 29.4.0, SVG Export Plug-In . SVG Version: 2.1.0 Build 152)  -->
  <path d="M54.7783203,16.6953125h-5.4541016c-.4619141,0-.8388672-.3779297-.8388672-.8422852,0-3.059082-2.4902344-5.5483398-5.5517578-5.5483398H9.2119141c-3.0566406,0-5.543457,2.4892578-5.543457,5.5483398v32.2993164c0,3.0556641,2.4868164,5.5419922,5.543457,5.5419922h45.5664062c3.0615234,0,5.5527344-2.4863281,5.5527344-5.5419922v-25.9091797c0-3.059082-2.4912109-5.5478516-5.5527344-5.5478516ZM8.3740234,15.8530273c0-.4648438.3759766-.8427734.8378906-.8427734h33.7216797c.4667969,0,.8476562.3779297.8476562.8427734,0,3.059082,2.4863281,5.5478516,5.5429688,5.5478516h5.4541016c.4667969,0,.8476562.3779297.8476562.8422852v25.9091797c0,.4619141-.3808594.8378906-.8476562.8378906H9.2119141c-.4697266,0-.8378906-.3681641-.8378906-.8378906V15.8530273Z"/>
</svg>