<?xml version="1.0" encoding="UTF-8"?>
<svg id="Layer_2" xmlns="http://www.w3.org/2000/svg" version="1.1" viewBox="0 0 64 64">
  <!-- Generator: Adobe Illustrator 29.4.0, SVG Export Plug-In . SVG Version: 2.1.0 Build 152)  -->
  <path d="M20.2348633,6.3095703c-3.5429688,0-6.425293,2.8818359-6.425293,6.4248047s2.8823242,6.425293,6.425293,6.425293c3.5424805,0,6.4248047-2.8823242,6.4248047-6.425293s-2.8823242-6.4248047-6.4248047-6.4248047Z"/>
  <path d="M43.765625,18.8642578c3.5429688,0,6.4248047-2.8818359,6.4248047-6.4248047s-2.8818359-6.425293-6.4248047-6.425293-6.4257812,2.8823242-6.4257812,6.425293,2.8828125,6.4248047,6.4257812,6.4248047Z"/>
  <path d="M20.2348633,25.7226562c-3.5429688,0-6.425293,2.8818359-6.425293,6.4248047s2.8823242,6.4248047,6.425293,6.4248047c3.5424805,0,6.4248047-2.8818359,6.4248047-6.4248047s-2.8823242-6.4248047-6.4248047-6.4248047Z"/>
  <path d="M43.765625,25.4272461c-3.5429688,0-6.4257812,2.8823242-6.4257812,6.425293s2.8828125,6.4248047,6.4257812,6.4248047,6.4248047-2.8818359,6.4248047-6.4248047-2.8818359-6.425293-6.4248047-6.425293Z"/>
  <path d="M20.2348633,45.1357422c-3.5429688,0-6.425293,2.8818359-6.425293,6.4248047s2.8823242,6.4248047,6.425293,6.4248047c3.5424805,0,6.4248047-2.8818359,6.4248047-6.4248047s-2.8823242-6.4248047-6.4248047-6.4248047Z"/>
  <path d="M43.765625,44.8408203c-3.5429688,0-6.4257812,2.8818359-6.4257812,6.4248047s2.8828125,6.4248047,6.4257812,6.4248047,6.4248047-2.8818359,6.4248047-6.4248047-2.8818359-6.4248047-6.4248047-6.4248047Z"/>
</svg>