<?xml version="1.0" encoding="UTF-8"?>
<svg id="Layer_2" xmlns="http://www.w3.org/2000/svg" version="1.1" viewBox="0 0 64 64">
  <!-- Generator: Adobe Illustrator 29.4.0, SVG Export Plug-In . SVG Version: 2.1.0 Build 152)  -->
  <path d="M44.6748047,12.2581v-4.8254828c0-1.2523488-1.0152293-2.2675781-2.2675781-2.2675781h-20.8144531c-1.2523488,0-2.2675781,1.0152293-2.2675781,2.2675781v4.8254827c0,.500619-.4058319.9064508-.9064509.9064508l-9.604123-.0000004c-1.1861406,0-2.266897.8535915-2.3849374,2.033844-.1357566,1.3573917.926348,2.5013127,2.2558628,2.5013127h4.621582c-.1789551.6621704-.2589722,1.3560791-.2216797,2.0571289l1.7651367,33.1855469c.1757812,3.3046875,2.7749023,5.8925781,5.9174805,5.8925781h22.4633789c3.1435547,0,5.7431641-2.5878906,5.9179688-5.8925781l1.765625-33.1860352c.0371094-.7008667-.0429077-1.3945923-.2218018-2.0566406l4.4917138.0000004c1.1863069.0000001,2.2673706-.8536365,2.3853804-2.0340592.1356924-1.3572974-.9269523-2.5010975-2.2558784-2.5010975h-9.7331976c-.500619,0-.9064508-.4058319-.9064508-.9064508ZM24.7668024,9.7001953h14.4663953c.500619,0,.9064508.4058319.9064508.9064508v1.6514538c0,.500619-.4058319.9064508-.9064508.9064508h-14.4663953c-.500619,0-.9064508-.4058319-.9064508-.9064508v-1.6514538c0-.500619.4058319-.9064508.9064508-.9064508ZM45.8994141,18.1147461c.3378906.3554688.5146484.8666992.4863281,1.4008789l-1.765625,33.1865234c-.046875.8955078-.6572266,1.5976562-1.3886719,1.5976562h-22.4633789c-.730957,0-1.3408203-.7021484-1.3881836-1.5976562l-1.7651367-33.1865234c-.0288086-.534668.1484375-1.0454102.4858398-1.4008789.1791992-.1894531.4814453-.4150391.9023438-.4150391h25.9941406c.4208984,0,.7226562.2255859.9023438.4150391Z" fill="#191919"/>
</svg>